<!--?xml version="1.0" encoding="us-ascii" standalone="no"?--><svg xmlns="http://www.w3.org/2000/svg" xmlns:xlink="http://www.w3.org/1999/xlink" contentstyletype="text/css" height="956px" preserveAspectRatio="none" style="width:1294px;height:956px;background:#FFFFFF;" version="1.1" viewBox="0 0 1294 956" width="1294px" zoomAndPan="magnify"><defs></defs><g><!--entity o--><g id="elem_o"><ellipse cx="368" cy="14" fill="#FFFFFF" rx="8" ry="8" style="stroke:#181818;stroke-width:0.5;"></ellipse><path d="M368,22 L368,49 M355,30 L381,30 M368,49 L355,64 M368,49 L381,64 " fill="none" style="stroke:#181818;stroke-width:0.5;"></path><text fill="#000000" font-family="sans-serif" font-size="14" lengthAdjust="spacing" textLength="45" x="345.5" y="78.4951">Owner</text></g><!--entity b--><g id="elem_b"><ellipse cx="364" cy="437.19" fill="#FFFFFF" rx="8" ry="8" style="stroke:#181818;stroke-width:0.5;"></ellipse><path d="M364,445.19 L364,472.19 M351,453.19 L377,453.19 M364,472.19 L351,487.19 M364,472.19 L377,487.19 " fill="none" style="stroke:#181818;stroke-width:0.5;"></path><text fill="#000000" font-family="sans-serif" font-size="14" lengthAdjust="spacing" textLength="40" x="344" y="501.6851">Buyer</text></g><!--entity a--><g id="elem_a"><ellipse cx="394" cy="785.08" fill="#FFFFFF" rx="8" ry="8" style="stroke:#181818;stroke-width:0.5;"></ellipse><path d="M394,793.08 L394,820.08 M381,801.08 L407,801.08 M394,820.08 L381,835.08 M394,820.08 L407,835.08 " fill="none" style="stroke:#181818;stroke-width:0.5;"></path><text fill="#000000" font-family="sans-serif" font-size="14" lengthAdjust="spacing" textLength="43" x="372.5" y="849.5751">Admin</text></g><!--entity PropertyStore--><g id="elem_PropertyStore"><rect fill="#FFFFFF" height="36.2969" rx="2.5" ry="2.5" style="stroke:#181818;stroke-width:0.5;" width="155" x="290.5" y="315.39"></rect><text fill="#000000" font-family="sans-serif" font-size="14" lengthAdjust="spacing" textLength="135" x="300.5" y="338.3851">Property Data Store</text></g><!--entity AppointmentStore--><g id="elem_AppointmentStore"><rect fill="#FFFFFF" height="36.2969" rx="2.5" ry="2.5" style="stroke:#181818;stroke-width:0.5;" width="186" x="770" y="663.28"></rect><text fill="#000000" font-family="sans-serif" font-size="14" lengthAdjust="spacing" textLength="166" x="780" y="686.2751">Appointment Data Store</text></g><!--entity QuestionStore--><g id="elem_QuestionStore"><rect fill="#FFFFFF" height="36.2969" rx="2.5" ry="2.5" style="stroke:#181818;stroke-width:0.5;" width="160" x="1037" y="663.28"></rect><text fill="#000000" font-family="sans-serif" font-size="14" lengthAdjust="spacing" textLength="140" x="1047" y="686.2751">Question Data Store</text></g><!--entity ComplaintStore--><g id="elem_ComplaintStore"><rect fill="#FFFFFF" height="36.2969" rx="2.5" ry="2.5" style="stroke:#181818;stroke-width:0.5;" width="166" x="348" y="663.28"></rect><text fill="#000000" font-family="sans-serif" font-size="14" lengthAdjust="spacing" textLength="146" x="358" y="686.2751">Complaint Data Store</text></g><!--entity UserStore--><g id="elem_UserStore"><rect fill="#FFFFFF" height="36.2969" rx="2.5" ry="2.5" style="stroke:#181818;stroke-width:0.5;" width="129" x="82.5" y="663.28"></rect><text fill="#000000" font-family="sans-serif" font-size="14" lengthAdjust="spacing" textLength="109" x="92.5" y="686.2751">User Data Store</text></g><!--entity RespondToComplaint--><g id="elem_RespondToComplaint"><rect fill="#FFFFFF" height="36.2969" rx="2.5" ry="2.5" style="stroke:#181818;stroke-width:0.5;" width="186" x="352" y="913.87"></rect><text fill="#000000" font-family="sans-serif" font-size="14" lengthAdjust="spacing" textLength="166" x="362" y="936.8651">Respond To Complaints</text></g><!--entity EnterPaymentDetails--><g id="elem_EnterPaymentDetails"><rect fill="#FFFFFF" height="36.2969" rx="2.5" ry="2.5" style="stroke:#181818;stroke-width:0.5;" width="172" x="426" y="25.5"></rect><text fill="#000000" font-family="sans-serif" font-size="14" lengthAdjust="spacing" textLength="152" x="436" y="48.4951">Enter Payment Details</text></g><!--entity LogIn--><g id="elem_LogIn"><rect fill="#FFFFFF" height="36.2969" rx="2.5" ry="2.5" style="stroke:#181818;stroke-width:0.5;" width="61" x="116.5" y="565.98"></rect><text fill="#000000" font-family="sans-serif" font-size="14" lengthAdjust="spacing" textLength="41" x="126.5" y="588.9751">Log In</text></g><!--entity LogOut--><g id="elem_LogOut"><rect fill="#FFFFFF" height="36.2969" rx="2.5" ry="2.5" style="stroke:#181818;stroke-width:0.5;" width="74" x="7" y="565.98"></rect><text fill="#000000" font-family="sans-serif" font-size="14" lengthAdjust="spacing" textLength="54" x="17" y="588.9751">Log Out</text></g><!--entity BookAppointment--><g id="elem_BookAppointment"><rect fill="#FFFFFF" height="36.2969" rx="2.5" ry="2.5" style="stroke:#181818;stroke-width:0.5;" width="149" x="679.5" y="565.98"></rect><text fill="#000000" font-family="sans-serif" font-size="14" lengthAdjust="spacing" textLength="129" x="689.5" y="588.9751">Book Appointment</text></g><!--entity AskQuestions--><g id="elem_AskQuestions"><rect fill="#FFFFFF" height="36.2969" rx="2.5" ry="2.5" style="stroke:#181818;stroke-width:0.5;" width="120" x="863" y="565.98"></rect><text fill="#000000" font-family="sans-serif" font-size="14" lengthAdjust="spacing" textLength="100" x="873" y="588.9751">Ask Questions</text></g><!--entity Complain--><g id="elem_Complain"><rect fill="#FFFFFF" height="36.2969" rx="2.5" ry="2.5" style="stroke:#181818;stroke-width:0.5;" width="84" x="561" y="565.98"></rect><text fill="#000000" font-family="sans-serif" font-size="14" lengthAdjust="spacing" textLength="64" x="571" y="588.9751">Complain</text></g><!--entity Register--><g id="elem_Register"><rect fill="#FFFFFF" height="36.2969" rx="2.5" ry="2.5" style="stroke:#181818;stroke-width:0.5;" width="78" x="212" y="565.98"></rect><text fill="#000000" font-family="sans-serif" font-size="14" lengthAdjust="spacing" textLength="58" x="222" y="588.9751">Register</text></g><!--entity CreateProperty--><g id="elem_CreateProperty"><rect fill="#FFFFFF" height="36.2969" rx="2.5" ry="2.5" style="stroke:#181818;stroke-width:0.5;" width="128" x="304" y="142.8"></rect><text fill="#000000" font-family="sans-serif" font-size="14" lengthAdjust="spacing" textLength="108" x="314" y="165.7951">Create Property</text></g><!--entity AnswerQuestions--><g id="elem_AnswerQuestions"><ellipse cx="1088" cy="217.59" fill="#FFFFFF" rx="8" ry="8" style="stroke:#181818;stroke-width:0.5;"></ellipse><path d="M1088,225.59 L1088,252.59 M1075,233.59 L1101,233.59 M1088,252.59 L1075,267.59 M1088,252.59 L1101,267.59 " fill="none" style="stroke:#181818;stroke-width:0.5;"></path><text fill="#000000" font-family="sans-serif" font-size="14" lengthAdjust="spacing" textLength="122" x="1027" y="282.0851">AnswerQuestions</text></g><!--link o to CreateProperty--><g id="link_o_CreateProperty"><path d="M368,82.08 C368,99.96 368,120.81 368,136.43 " fill="none" id="o-to-CreateProperty" style="stroke:#181818;stroke-width:1.0;"></path><polygon fill="#181818" points="368,141.36,372,132.36,368,136.36,364,132.36,368,141.36" style="stroke:#181818;stroke-width:1.0;"></polygon></g><!--link CreateProperty to PropertyStore--><g id="link_CreateProperty_PropertyStore"><path d="M368,179.56 C368,210.54 368,274.77 368,309.33 " fill="none" id="CreateProperty-to-PropertyStore" style="stroke:#181818;stroke-width:1.0;"></path><polygon fill="#181818" points="368,314.02,372,305.02,368,309.02,364,305.02,368,314.02" style="stroke:#181818;stroke-width:1.0;"></polygon></g><!--link PropertyStore to b--><g id="link_PropertyStore_b"><path d="M367.47,351.97 C366.92,369.93 366.05,398.6 365.31,422.68 " fill="none" id="PropertyStore-to-b" style="stroke:#181818;stroke-width:1.0;"></path><polygon fill="#181818" points="365.14,427.38,369.4207,418.5101,365.2971,422.3825,361.4247,418.2588,365.14,427.38" style="stroke:#181818;stroke-width:1.0;"></polygon><text fill="#000000" font-family="sans-serif" font-size="13" lengthAdjust="spacing" textLength="87" x="368" y="394.7569">View Property</text></g><!--link b to BookAppointment--><g id="link_b_BookAppointment"><path d="M384.42,473.87 C440.53,490.46 598.87,537.27 689.04,563.93 " fill="none" id="b-to-BookAppointment" style="stroke:#181818;stroke-width:1.0;"></path><polygon fill="#181818" points="693.61,565.57,686.1126,559.1833,688.815,564.153,683.8454,566.8553,693.61,565.57" style="stroke:#181818;stroke-width:1.0;"></polygon></g><!--link BookAppointment to AppointmentStore--><g id="link_BookAppointment_AppointmentStore"><path d="M773.99,602.61 C792.28,618.6 819.36,642.28 838.85,659.31 " fill="none" id="BookAppointment-to-AppointmentStore" style="stroke:#181818;stroke-width:1.0;"></path><polygon fill="#181818" points="842.13,663.06,837.9716,654.1321,838.36,659.7756,832.7165,660.164,842.13,663.06" style="stroke:#181818;stroke-width:1.0;"></polygon></g><!--link AppointmentStore to o--><g id="link_AppointmentStore_o"><path d="M916.56,662.84 C963.84,644.01 1022.22,610.69 1001,565.98 C855.14,258.58 664.57,305.28 408,81.8 C403.71,78.06 399.24,74.04 394.9,70.06 " fill="none" id="AppointmentStore-to-o" style="stroke:#181818;stroke-width:1.0;"></path><polygon fill="#181818" points="391.62,67.12,395.5245,76.1618,395.2957,70.5096,400.9479,70.2808,391.62,67.12" style="stroke:#181818;stroke-width:1.0;"></polygon><text fill="#000000" font-family="sans-serif" font-size="13" lengthAdjust="spacing" textLength="123" x="889" y="394.7569">View Appointments</text></g><!--link b to AskQuestions--><g id="link_b_AskQuestions"><path d="M384.23,471.82 C450.53,484.9 667.26,527.89 846,565.98 C849.69,566.77 853.48,567.58 857.3,568.41 " fill="none" id="b-to-AskQuestions" style="stroke:#181818;stroke-width:1.0;"></path><polygon fill="#181818" points="861.91,569.64,853.9595,563.8271,857.0231,568.5826,852.2676,571.6462,861.91,569.64" style="stroke:#181818;stroke-width:1.0;"></polygon></g><!--link AskQuestions to QuestionStore--><g id="link_AskQuestions_QuestionStore"><path d="M958.58,602.61 C991.84,618.95 1041.46,643.32 1076.29,660.43 " fill="none" id="AskQuestions-to-QuestionStore" style="stroke:#181818;stroke-width:1.0;"></path><polygon fill="#181818" points="1080.32,662.9,1074.0009,655.3456,1075.8308,660.6983,1070.4782,662.5283,1080.32,662.9" style="stroke:#181818;stroke-width:1.0;"></polygon></g><!--link QuestionStore to o--><g id="link_QuestionStore_o"><path d="M1141.04,662.9 C1161.64,645.66 1188,617.32 1188,585.13 C1188,159.94 1188,159.94 1188,159.94 C1188,82.7 1097.2,124.47 1021,111.8 C886.46,89.42 533.69,134.74 408,81.8 C403.61,79.94 399.39,77.39 395.46,74.47 " fill="none" id="QuestionStore-to-o" style="stroke:#181818;stroke-width:1.0;"></path><polygon fill="#181818" points="391.98,70.9,396.5324,79.6336,395.8927,74.013,401.5133,73.3733,391.98,70.9" style="stroke:#181818;stroke-width:1.0;"></polygon><text fill="#000000" font-family="sans-serif" font-size="13" lengthAdjust="spacing" textLength="97" x="1189" y="394.7569">View Questions</text></g><!--link o to AnswerQuestions--><g id="link_o_AnswerQuestions"><path d="M390.99,70.89 C396.13,75.27 401.89,79.21 408,81.8 C528.32,132.63 880.9,48.22 995,111.8 C1030.86,131.78 1055.88,172.09 1070.87,203.39 " fill="none" id="o-to-AnswerQuestions" style="stroke:#181818;stroke-width:1.0;"></path><polygon fill="#181818" points="1073.37,207.73,1073.1871,197.8828,1071.2548,203.1994,1065.9382,201.2672,1073.37,207.73" style="stroke:#181818;stroke-width:1.0;"></polygon></g><!--link AnswerQuestions to QuestionStore--><g id="link_AnswerQuestions_QuestionStore"><path d="M1100.05,285.8 C1108.01,313.95 1117,353.59 1117,389.19 C1117,389.19 1117,389.19 1117,585.13 C1117,609.61 1117,637.64 1117,656.92 " fill="none" id="AnswerQuestions-to-QuestionStore" style="stroke:#181818;stroke-width:1.0;"></path><polygon fill="#181818" points="1117,661.86,1121,652.86,1117,656.86,1113,652.86,1117,661.86" style="stroke:#181818;stroke-width:1.0;"></polygon></g><!--link b to Complain--><g id="link_b_Complain"><path d="M384.38,477.66 C423.45,496.51 509.6,538.07 561.33,563.03 " fill="none" id="b-to-Complain" style="stroke:#181818;stroke-width:1.0;"></path><polygon fill="#181818" points="565.53,565.54,559.1627,558.0262,561.0269,563.3671,555.686,565.2312,565.53,565.54" style="stroke:#181818;stroke-width:1.0;"></polygon></g><!--link Complain to ComplaintStore--><g id="link_Complain_ComplaintStore"><path d="M571.45,602.61 C542.21,618.81 498.69,642.92 467.86,660.01 " fill="none" id="Complain-to-ComplaintStore" style="stroke:#181818;stroke-width:1.0;"></path><polygon fill="#181818" points="463.64,662.9,473.4512,662.0394,468.0141,660.4778,469.5757,655.0408,463.64,662.9" style="stroke:#181818;stroke-width:1.0;"></polygon></g><!--link ComplaintStore to a--><g id="link_ComplaintStore_a"><path d="M392.73,699.88 C381.02,707.27 369.53,717.1 363,729.58 C354.49,745.83 360.38,764.94 369.22,780.84 " fill="none" id="ComplaintStore-to-a" style="stroke:#181818;stroke-width:1.0;"></path><polygon fill="#181818" points="372.04,784.67,370.9401,774.8827,369.5118,780.3563,364.0382,778.9279,372.04,784.67" style="stroke:#181818;stroke-width:1.0;"></polygon><text fill="#000000" font-family="sans-serif" font-size="13" lengthAdjust="spacing" textLength="105" x="364" y="742.6469">View Complaints</text></g><!--link a to RespondToComplaint--><g id="link_a_RespondToComplaint"><path d="M410.56,853.16 C418.61,871.35 428.02,892.63 434.96,908.33 " fill="none" id="a-to-RespondToComplaint" style="stroke:#181818;stroke-width:1.0;"></path><polygon fill="#181818" points="437.22,912.43,437.2257,902.5811,435.192,907.8598,429.9133,905.826,437.22,912.43" style="stroke:#181818;stroke-width:1.0;"></polygon></g><!--link RespondToComplaint to ComplaintStore--><g id="link_RespondToComplaint_ComplaintStore"><path d="M453.28,913.38 C468.89,877.5 498.96,793.99 474,729.58 C470.28,719.99 463.61,711.16 456.61,703.79 " fill="none" id="RespondToComplaint-to-ComplaintStore" style="stroke:#181818;stroke-width:1.0;"></path><polygon fill="#181818" points="453.71,700.85,457.227,710.0495,457.2384,704.3927,462.8952,704.4041,453.71,700.85" style="stroke:#181818;stroke-width:1.0;"></polygon></g><!--link ComplaintStore to b--><g id="link_ComplaintStore_b"><path d="M415.01,662.98 C402.35,648.04 385.44,625.36 377,602.28 C366.37,573.2 363.25,538.36 362.71,511.43 " fill="none" id="ComplaintStore-to-b" style="stroke:#181818;stroke-width:1.0;"></path><polygon fill="#181818" points="362.64,506.47,358.769,515.5262,362.7114,511.4695,366.7682,515.4119,362.64,506.47" style="stroke:#181818;stroke-width:1.0;"></polygon><text fill="#000000" font-family="sans-serif" font-size="13" lengthAdjust="spacing" textLength="164" x="378" y="588.6969">View Complaint Response</text></g><!--link b to Register--><g id="link_b_Register"><path d="M343.54,488.71 C323.35,509.31 292.63,540.66 272.19,561.51 " fill="none" id="b-to-Register" style="stroke:#181818;stroke-width:1.0;"></path><polygon fill="#181818" points="268.99,564.79,278.1462,561.1618,272.4896,561.2189,272.4325,555.5624,268.99,564.79" style="stroke:#181818;stroke-width:1.0;"></polygon></g><!--link b to LogIn--><g id="link_b_LogIn"><path d="M343.59,478.68 C306.81,498.22 228.99,539.57 183.06,563.97 " fill="none" id="b-to-LogIn" style="stroke:#181818;stroke-width:1.0;"></path><polygon fill="#181818" points="178.9,566.71,188.7249,566.0239,183.3165,564.366,184.9745,558.9575,178.9,566.71" style="stroke:#181818;stroke-width:1.0;"></polygon></g><!--link b to LogOut--><g id="link_b_LogOut"><path d="M343.98,475.05 C292.84,493.47 156.5,542.6 86.61,567.78 " fill="none" id="b-to-LogOut" style="stroke:#181818;stroke-width:1.0;"></path><polygon fill="#181818" points="82.29,569.7,92.112,570.4267,86.9964,568.012,89.4112,562.8964,82.29,569.7" style="stroke:#181818;stroke-width:1.0;"></polygon></g><!--link o to Register--><g id="link_o_Register"><path d="M345.18,52.67 C307.65,67.5 237,102.98 237,159.94 C237,159.94 237,159.94 237,467.83 C237,499.86 242.39,536.52 246.48,559.74 " fill="none" id="o-to-Register" style="stroke:#181818;stroke-width:1.0;"></path><polygon fill="#181818" points="247.54,564.63,249.885,555.0644,246.6556,559.7088,242.0112,556.4794,247.54,564.63" style="stroke:#181818;stroke-width:1.0;"></polygon></g><!--link o to LogIn--><g id="link_o_LogIn"><path d="M345.39,46.06 C289.43,50.91 149,71.86 149,159.94 C149,159.94 149,159.94 149,467.83 C149,499.63 148.23,536.34 147.65,559.64 " fill="none" id="o-to-LogIn" style="stroke:#181818;stroke-width:1.0;"></path><polygon fill="#181818" points="147.49,564.55,151.72,555.6558,147.6185,559.5517,143.7227,555.4502,147.49,564.55" style="stroke:#181818;stroke-width:1.0;"></polygon></g><!--link o to LogOut--><g id="link_o_LogOut"><path d="M345.1,48.13 C273.72,59.61 60,99.06 60,159.94 C60,159.94 60,159.94 60,467.83 C60,500.06 53.79,536.88 49.11,560.07 " fill="none" id="o-to-LogOut" style="stroke:#181818;stroke-width:1.0;"></path><polygon fill="#181818" points="47.96,564.66,53.6789,556.6416,48.9598,559.761,45.8404,555.0419,47.96,564.66" style="stroke:#181818;stroke-width:1.0;"></polygon></g><!--link LogIn to UserStore--><g id="link_LogIn_UserStore"><path d="M147,602.61 C147,617.92 147,640.3 147,657.13 " fill="none" id="LogIn-to-UserStore" style="stroke:#181818;stroke-width:1.0;"></path><polygon fill="#181818" points="147,662.06,151,653.06,147,657.06,143,653.06,147,662.06" style="stroke:#181818;stroke-width:1.0;"></polygon></g><!--link LogOut to UserStore--><g id="link_LogOut_UserStore"><path d="M62.89,602.61 C80.17,618.6 105.77,642.28 124.18,659.31 " fill="none" id="LogOut-to-UserStore" style="stroke:#181818;stroke-width:1.0;"></path><polygon fill="#181818" points="127.23,662.06,123.3445,653.01,123.5615,658.6627,117.9088,658.8796,127.23,662.06" style="stroke:#181818;stroke-width:1.0;"></polygon></g><!--link Register to UserStore--><g id="link_Register_UserStore"><path d="M231.92,602.61 C214.48,618.6 188.63,642.28 170.04,659.31 " fill="none" id="Register-to-UserStore" style="stroke:#181818;stroke-width:1.0;"></path><polygon fill="#181818" points="166.95,662.06,176.2906,658.9369,170.6393,658.6853,170.891,653.034,166.95,662.06" style="stroke:#181818;stroke-width:1.0;"></polygon></g><!--SRC=[fPJFJW8n4CRlynGDTrx0WmcW1n8JK57F1PgrMUXiscu8CRwxtVxRJXSJ4pcrl- -RcNOwYscbwhZcPyOF5ZNx0kP-Itve6uszEgxmvEZ7fxG2lW5Cjcjni5mr9_5Bo2M5XBoRYnAQSSCmWcL_3M0VmU9ubce0761CFjjgx8IsL_R0BMUlpYbcWojnJrWPiUWwbCgUXR9rK25DuvvxOQn4LGSbFerOuRaxSJcjamMFof0tusvTkGSMavVM5s4wL4Usmp6VyG5HsM7c9F1HMLTaow-X1S9oUGg1Neb2v6NW4pPihRpJBTUgrZQzJQ9RaffBnBPih_SDi63aaKoR6nlEvaW6jvfC6alxr4ZZxXLR4pR_kHQvs4eBRaKUjt0Apn82PFFvVGtfrZl8o08Tu47Vtx7PknINiHZ0tYjr8wkzzzIp3JLm9amL2itaAkG5oerNoMS0zACOz9nxV5P0drQPYz15Phg_aJoU9pzsMX0QRqctti7JIOhF1hYNRdmvK_J7Clj9cPZUYDpIF8vX6yOlhuTfG-h3meUb3y13Z_8V1WInWYaPnJy0]--></g></svg>